# xmcd
#
# Track frame offsets:
#	150
#	15235
#	30347
#	43245
#	54365
#	68685
#	84095
#	96575
#	115780
#	134655
#	145260
#	156935
#	170575
#	182557
#	203697
#	226175
#
# Disc length: 3196 seconds
#
# Revision: 1
# Processed by: cddbd v1.5.2PL0 Copyright (c) Steve Scherf et al.
# Submitted via: EasyCDDAExtractor 10.0.2.1
#
DISCID=cb0c7a10
DTITLE=Various Artist - The Beat Goes On
DYEAR=1987
DGENRE=Oldie
TTITLE0=George Mc Rae - Rock Your Baby
TTITLE1=Shirley and Co - Shame Shame
TTITLE2=The Archies - Sugar Sugar
TTITLE3=Mac and Katie Kisson - I've Found My Freedom
TTITLE4=Gary Puckett and The Union Gap - Young Girl
TTITLE5=Mungo Jerry - In The Summertime
TTITLE6=Bobby Hebb - Sunny
TTITLE7=Deep Purple - Hush
TTITLE8=Billy Ocean - Love Realty Hurts Without You
TTITLE9=Sam And Dave - Sweet Soul Music
TTITLE10=The Troggs - Wild Thing
TTITLE11=Gene Pitney - 24 Hours From Tulsa
TTITLE12=Billy Joe Royal - Down In The Boondocks
TTITLE13=Lee Hazlewood - Ballade Of Lucy Jordan
TTITLE14=Shugarill Gang - Rappers Delight
TTITLE15=Iron Butterfly - In-A-Gadda-Da-Vida
EXTD=
EXTT0=
EXTT1=
EXTT2=
EXTT3=
EXTT4=
EXTT5=
EXTT6=
EXTT7=
EXTT8=
EXTT9=
EXTT10=
EXTT11=
EXTT12=
EXTT13=
EXTT14=
EXTT15=
PLAYORDER=
